<?xml version="1.0" encoding="UTF-8"?>
<svg version="1.1" xmlns="http://www.w3.org/2000/svg" width="500" height="500">
<path d="M0 0 C165 0 330 0 500 0 C500 165 500 330 500 500 C335 500 170 500 0 500 C0 335 0 170 0 0 Z " fill="#FEFEFE" transform="translate(0,0)"/>
<path d="M0 0 C6.27 0 12.54 0 19 0 C20.32 9.9 21.64 19.8 23 30 C24.43848847 25.68453459 25.33455096 22.53516008 25.8515625 18.1640625 C25.98046875 17.10058594 26.109375 16.03710938 26.2421875 14.94140625 C26.43167969 13.29978516 26.43167969 13.29978516 26.625 11.625 C26.7590625 10.50738281 26.893125 9.38976562 27.03125 8.23828125 C27.35976298 5.49285136 27.68063843 2.74650947 28 0 C34.27 0 40.54 0 47 0 C47 20.13 47 40.26 47 61 C43.37 61 39.74 61 36 61 C35.67 49.78 35.34 38.56 35 27 C33.77053606 34.82165143 33.77053606 34.82165143 32.54736328 42.64428711 C31.56749503 48.82287295 30.43361159 54.9103796 29 61 C25.37 61 21.74 61 18 61 C17.71125 59.22625 17.4225 57.4525 17.125 55.625 C16.4781829 51.73498732 15.79270411 47.86285971 15 44 C13.87150353 38.35751767 12.94598885 32.67593307 12 27 C11.67 38.22 11.34 49.44 11 61 C7.37 61 3.74 61 0 61 C0 40.87 0 20.74 0 0 Z " fill="#040404" transform="translate(126,217)"/>
<path d="M0 0 C3.50457746 1.75228873 5.5052683 2.92325552 7.15966797 6.52392578 C8.25959338 11.07382063 8.2482259 15.3295616 8.1953125 19.9921875 C8.1924826 20.93812775 8.18965271 21.88406799 8.18673706 22.8586731 C8.17558932 25.86424694 8.15049465 28.86951702 8.125 31.875 C8.11496321 33.91926651 8.10583859 35.96353772 8.09765625 38.0078125 C8.07566767 43.00532444 8.04117509 48.0026108 8 53 C3.71 53 -0.58 53 -5 53 C-5.495 32.21 -5.495 32.21 -6 11 C-7.32 11.33 -8.64 11.66 -10 12 C-10.33 25.53 -10.66 39.06 -11 53 C-14.96 53 -18.92 53 -23 53 C-23.495 32.21 -23.495 32.21 -24 11 C-25.32 11.33 -26.64 11.66 -28 12 C-28.33 25.53 -28.66 39.06 -29 53 C-32.96 53 -36.92 53 -41 53 C-41 35.84 -41 18.68 -41 1 C-37.04 1 -33.08 1 -29 1 C-28.67 1.66 -28.34 2.32 -28 3 C-27.01 2.34 -26.02 1.68 -25 1 C-20.86388948 0.47330428 -17.09027362 0.52920003 -13.25 2.1875 C-12.5075 2.455625 -11.765 2.72375 -11 3 C-4.53367876 -0.64766839 -4.53367876 -0.64766839 0 0 Z " fill="#040404" transform="translate(331,225)"/>
<path d="M0 0 C3.96 0 7.92 0 12 0 C12.33 7.26 12.66 14.52 13 22 C13.639375 20.040625 14.27875 18.08125 14.9375 16.0625 C16.875 10.125 16.875 10.125 18 9 C20.18639453 8.92741054 22.37500389 8.91626217 24.5625 8.9375 C26.35880859 8.95103516 26.35880859 8.95103516 28.19140625 8.96484375 C29.11824219 8.97644531 30.04507813 8.98804688 31 9 C30.7827124 9.60996826 30.5654248 10.21993652 30.34155273 10.84838867 C29.36086297 13.62380135 28.3990543 16.4054029 27.4375 19.1875 C27.09525391 20.14720703 26.75300781 21.10691406 26.40039062 22.09570312 C25.92182617 23.49272461 25.92182617 23.49272461 25.43359375 24.91796875 C25.13509521 25.77156982 24.83659668 26.6251709 24.52905273 27.50463867 C23.53952696 32.1718943 25.3427787 36.25917364 26.84765625 40.66796875 C27.20537109 41.72564453 27.56308594 42.78332031 27.93164062 43.87304688 C28.30482422 44.96681641 28.67800781 46.06058594 29.0625 47.1875 C29.80613361 49.36755409 30.54715729 51.54850076 31.28515625 53.73046875 C31.61394775 54.69364014 31.94273926 55.65681152 32.28149414 56.64916992 C33 59 33 59 33 61 C28.71 61 24.42 61 20 61 C17.69 54.07 15.38 47.14 13 40 C12.67 46.93 12.34 53.86 12 61 C8.04 61 4.08 61 0 61 C0 40.87 0 20.74 0 0 Z " fill="#020202" transform="translate(179,217)"/>
<path d="M0 0 C3.07624038 1.5950876 4.75568707 3.33044347 6.625 6.25 C6.98576355 8.43939209 6.98576355 8.43939209 6.96557617 10.83496094 C6.96534958 11.73559265 6.96512299 12.63622437 6.96488953 13.56414795 C6.94940567 14.52782288 6.93392181 15.4914978 6.91796875 16.484375 C6.91372391 17.47753723 6.90947906 18.47069946 6.90510559 19.49395752 C6.88832634 22.66291528 6.850675 25.83123478 6.8125 29 C6.79745221 31.14973039 6.78376397 33.29947076 6.77148438 35.44921875 C6.73842518 40.71639138 6.68664754 45.98308751 6.625 51.25 C2.665 51.25 -1.295 51.25 -5.375 51.25 C-5.705 49.93 -6.035 48.61 -6.375 47.25 C-6.684375 47.91 -6.99375 48.57 -7.3125 49.25 C-9.74106196 51.60496917 -10.52619721 51.62027752 -13.8125 51.75 C-17.09151475 51.60604326 -18.14666599 51.41554216 -20.875 49.4375 C-23.70331425 45.31287506 -23.62187643 41.26302016 -23.6875 36.4375 C-23.73100586 35.38852539 -23.73100586 35.38852539 -23.77539062 34.31835938 C-23.83761373 29.20170563 -22.91731953 26.18399063 -19.375 22.25 C-16.140625 20.5703125 -16.140625 20.5703125 -12.625 19.375 C-11.45453125 18.96507812 -10.2840625 18.55515625 -9.078125 18.1328125 C-8.18609375 17.84148437 -7.2940625 17.55015625 -6.375 17.25 C-6.375 14.94 -6.375 12.63 -6.375 10.25 C-7.695 9.92 -9.015 9.59 -10.375 9.25 C-10.705 10.9 -11.035 12.55 -11.375 14.25 C-15.335 14.25 -19.295 14.25 -23.375 14.25 C-23.70264303 10.15446218 -23.60569669 7.71139337 -21.75 4 C-15.89932794 -2.77446238 -7.92652358 -3.6864163 0 0 Z " fill="#050505" transform="translate(236.375,226.75)"/>
<path d="M0 0 C4.29 0 8.58 0 13 0 C13.33 0.66 13.66 1.32 14 2 C14.66 1.34 15.32 0.68 16 0 C17.65 0 19.3 0 21 0 C21 3.3 21 6.6 21 10 C19.2984375 10.2165625 19.2984375 10.2165625 17.5625 10.4375 C14.19222799 10.61171478 14.19222799 10.61171478 13 12 C12.83970312 14.95529504 12.74042672 17.88982457 12.68359375 20.84765625 C12.66281265 21.7340831 12.64203156 22.62050995 12.62062073 23.53379822 C12.555026 26.376617 12.49619448 29.21953117 12.4375 32.0625 C12.3943242 33.98503606 12.35071022 35.90756234 12.30664062 37.83007812 C12.19933457 42.55328668 12.09809549 47.27659153 12 52 C8.04 52 4.08 52 0 52 C0 34.84 0 17.68 0 0 Z " fill="#010101" transform="translate(248,226)"/>
<path d="M0 0 C4.29 0 8.58 0 13 0 C13 17.16 13 34.32 13 52 C8.71 52 4.42 52 0 52 C0 34.84 0 17.68 0 0 Z " fill="#0B0B0B" transform="translate(272,226)"/>
<path d="M0 0 C3.96 0 7.92 0 12 0 C12 2.64 12 5.28 12 8 C8.04 8 4.08 8 0 8 C0 5.36 0 2.72 0 0 Z " fill="#030303" transform="translate(273,214)"/>
<path d="M0 0 C0 5.61 0 11.22 0 17 C-1.32 17.33 -2.64 17.66 -4 18 C-5.41514574 15.16970852 -5.20780992 12.71620867 -5.25 9.5625 C-5.28867188 7.83193359 -5.28867188 7.83193359 -5.328125 6.06640625 C-5 3 -5 3 -3.609375 1.08984375 C-2 0 -2 0 0 0 Z " fill="#F3F3F3" transform="translate(230,251)"/>
</svg>
